<svg xmlns="http://www.w3.org/2000/svg" xmlns:xlink="http://www.w3.org/1999/xlink" xmlns:lucid="lucid" width="500" height="851.16"><g transform="translate(-180 -68.8380336082426)" lucid:page-tab-id="0_0"><path d="M0 0h1870.87v1322.83H0z" fill="#fff"/><path d="M200 406c0-3.3 2.7-6 6-6h188c3.3 0 6 2.7 6 6v488c0 3.3-2.7 6-6 6H206c-3.3 0-6-2.7-6-6z" stroke="#5e5e5e" stroke-width="3" fill-opacity="0"/><path d="M220 457.73h60v27.54h-60z" fill="none"/><use xlink:href="#a" transform="matrix(1,0,0,1,220,457.72863305842395) translate(0 18.444444444444443)"/><path d="M200.75 441.5c0-.4.34-.75.75-.75h197c.4 0 .75.34.75.75 0 .4-.34.75-.75.75h-197c-.4 0-.75-.34-.75-.75z" stroke="#5e5e5e" stroke-width="1.5" fill="none"/><path d="M200 866c0-3.3 2.7-6 6-6h128c3.3 0 6 2.7 6 6v28c0 3.3-2.7 6-6 6H206c-3.3 0-6-2.7-6-6z" stroke="#5e5e5e" stroke-width="3" fill="#fff"/><use xlink:href="#b" transform="matrix(1,0,0,1,212,872) translate(0.4197530864197674 14.222222222222221)"/><path d="M200 411.67h200v52.66H200z" fill="#fff" fill-opacity="0"/><use xlink:href="#c" transform="matrix(1,0,0,1,205,416.66666666666663) translate(0 14.222222222222221)"/><use xlink:href="#d" transform="matrix(1,0,0,1,205,416.66666666666663) translate(27.604938271604937 14.222222222222221)"/><path d="M220 542.27h65.87v27.54H220z" fill="none"/><use xlink:href="#e" transform="matrix(1,0,0,1,220,542.2713669415762) translate(0 17.77777777777778)"/><use xlink:href="#f" transform="matrix(1,0,0,1,220,542.2713669415762) translate(33 44.44444444444444)"/><path d="M220 584.54h75v27.55h-75z" fill="none"/><use xlink:href="#g" transform="matrix(1,0,0,1,220.00000000000003,584.5427338831522) translate(0 17.77777777777778)"/><use xlink:href="#f" transform="matrix(1,0,0,1,220.00000000000003,584.5427338831522) translate(38 44.44444444444444)"/><path d="M220 500h40v27.54h-40z" fill="none"/><use xlink:href="#h" transform="matrix(1,0,0,1,220,500.00000000000006) translate(0 17.77777777777778)"/><use xlink:href="#f" transform="matrix(1,0,0,1,220,500.00000000000006) translate(20 44.44444444444444)"/><path d="M220 622.27h75v27.54h-75z" fill="none"/><use xlink:href="#i" transform="matrix(1,0,0,1,220,622.2713669415762) translate(0 18.444444444444443)"/><path d="M220 660h75v27.54h-75z" fill="none"/><use xlink:href="#j" transform="matrix(1,0,0,1,220,660) translate(0 18.444444444444443)"/><path d="M296.5 290.75c.4 0 .75.34.75.75v107c0 .4-.34.75-.75.75-.4 0-.75-.34-.75-.75v-107c0-.4.34-.75.75-.75z" stroke="#5e5e5e" stroke-width="1.5" fill="none"/><path d="M200 94.84c0-3.32 2.7-6 6-6h188c3.3 0 6 2.68 6 6v186.4c0 3.3-2.7 6-6 6H206c-3.3 0-6-2.7-6-6z" stroke="#5e5e5e" stroke-width="3" fill-opacity="0"/><path d="M200.75 151.43c0-.4.34-.75.75-.75h197c.4 0 .75.34.75.75 0 .42-.34.75-.75.75h-197c-.4 0-.75-.33-.75-.75z" stroke="#5e5e5e" stroke-width="1.5" fill="none"/><path d="M200 255.93c0-3.3 2.7-6 6-6h128c3.3 0 6 2.7 6 6v26.4c0 3.32-2.7 6-6 6H206c-3.3 0-6-2.68-6-6z" stroke="#5e5e5e" stroke-width="3" fill="#fff"/><use xlink:href="#k" transform="matrix(1,0,0,1,212.00000000000003,261.9333333333333) translate(32.320987654320994 14.222222222222221)"/><path d="M200 121.6h200v52.67H200z" fill="#fff" fill-opacity="0"/><use xlink:href="#c" transform="matrix(1,0,0,1,205,126.59999999999988) translate(0 14.222222222222221)"/><use xlink:href="#l" transform="matrix(1,0,0,1,205,126.59999999999988) translate(27.604938271604937 14.222222222222221)"/><path d="M220 174.27h40v27.54h-40z" fill="none"/><use xlink:href="#h" transform="matrix(1,0,0,1,220,174.26666666666657) translate(0 17.77777777777778)"/><use xlink:href="#f" transform="matrix(1,0,0,1,220,174.26666666666657) translate(20 44.44444444444444)"/><path d="M460 94.84c0-3.32 2.7-6 6-6h188c3.3 0 6 2.68 6 6V334c0 3.3-2.7 6-6 6H466c-3.3 0-6-2.7-6-6z" stroke="#5e5e5e" stroke-width="3" fill-opacity="0"/><path d="M460.75 151.43c0-.4.34-.75.75-.75h197c.4 0 .75.34.75.75 0 .42-.34.75-.75.75h-197c-.4 0-.75-.33-.75-.75z" stroke="#5e5e5e" stroke-width="1.5" fill="none"/><path d="M460 307.6c0-3.3 2.7-6 6-6h128c3.3 0 6 2.7 6 6V334c0 3.3-2.7 6-6 6H466c-3.3 0-6-2.7-6-6z" stroke="#5e5e5e" stroke-width="3" fill="#fff"/><use xlink:href="#m" transform="matrix(1,0,0,1,472,313.5999999999999) translate(25.90123456790124 14.222222222222221)"/><path d="M460 121.6h200v52.67H460z" fill="#fff" fill-opacity="0"/><use xlink:href="#c" transform="matrix(1,0,0,1,465,126.59999999999988) translate(0 14.222222222222221)"/><use xlink:href="#n" transform="matrix(1,0,0,1,465,126.59999999999988) translate(27.604938271604937 14.222222222222221)"/><path d="M480 174.27h180v27.54H480z" fill="none"/><g><use xlink:href="#o" transform="matrix(1,0,0,1,480,174.26666666666654) translate(0 18.444444444444443)"/><use xlink:href="#p" transform="matrix(1,0,0,1,480,174.26666666666654) translate(53.20987654320987 18.444444444444443)"/></g><path d="M480 255.36h140v27.54H480z" fill="none"/><g><use xlink:href="#q" transform="matrix(1,0,0,1,480,255.36196639175725) translate(0 18.444444444444443)"/></g><g><path d="M519.35 340.5c.1.4-.14.8-.54.9l-221.78 57.5c-.4.1-.8-.14-.92-.54-.1-.4.14-.8.54-.9l221.8-57.5c.4-.1.8.13.9.53z" stroke="#5e5e5e" stroke-width="1.5" fill="none"/></g><path d="M480 216.95h140v27.55H480z" fill="none"/><g><use xlink:href="#r" transform="matrix(1,0,0,1,480,216.9547002749093) translate(0 18.444444444444443)"/></g><defs><path fill="#333" d="M115-194c55 1 70 41 70 98S169 2 115 4C84 4 66-9 55-30l1 105H24l-1-265h31l2 30c10-21 28-34 59-34zm-8 174c40 0 45-34 45-75s-6-73-45-74c-42 0-51 32-51 76 0 43 10 73 51 73" id="s"/><path fill="#333" d="M100-194c62-1 85 37 85 99 1 63-27 99-86 99S16-35 15-95c0-66 28-99 85-99zM99-20c44 1 53-31 53-75 0-43-8-75-51-75s-53 32-53 75 10 74 51 75" id="t"/><path fill="#333" d="M153 0v-167H87C74-108 81-27 38 0 29 5 12 6 2 1v-22c51 4 39-64 49-112 5-25 4-25 8-57h126V0h-32" id="u"/><path fill="#333" d="M173-56C173 11 92 0 25 0v-190h32v80c58-2 117-2 116 54zm-34 0c0-39-44-31-82-32v66c39 0 82 6 82-34" id="v"/><g id="a"><use transform="matrix(0.06172839506172839,0,0,0.06172839506172839,0,0)" xlink:href="#s"/><use transform="matrix(0.06172839506172839,0,0,0.06172839506172839,12.345679012345679,0)" xlink:href="#t"/><use transform="matrix(0.06172839506172839,0,0,0.06172839506172839,24.19753086419753,0)" xlink:href="#u"/><use transform="matrix(0.06172839506172839,0,0,0.06172839506172839,37.160493827160494,0)" xlink:href="#v"/></g><path fill="#333" d="M197 0v-219H63V0H30v-248h201V0h-34" id="w"/><path fill="#333" d="M152-53C154 19 21 22 9-41l28-8c5 36 84 42 81-4-1-29-28-34-58-35v-24c28 0 55-4 55-30 0-19-14-29-34-28-20 0-35 7-38 25l-28-3c4-33 30-46 66-46 37 0 66 15 66 50 0 27-20 41-44 44 27 5 48 17 49 47" id="x"/><path fill="#333" d="M176-55C176 11 93 0 25 0v-190c61 3 142-15 144 47 1 29-21 35-39 44 27 3 46 16 46 44zm-34 0c0-41-47-30-85-32v64c38-1 85 8 85-32zm-6-83c0-36-44-26-79-28v56c34-2 79 8 79-28" id="y"/><path fill="#333" d="M141-36C126-15 110 5 73 4 37 3 15-17 15-53c-1-64 63-63 125-63 3-35-9-54-41-54-24 1-41 7-42 31l-33-3c5-37 33-52 76-52 45 0 72 20 72 64v82c-1 20 7 32 28 27v20c-31 9-61-2-59-35zM48-53c0 20 12 33 32 33 41-3 63-29 60-74-43 2-92-5-92 41" id="z"/><path fill="#333" d="M6-190h153v23H98V0H67v-167H6v-23" id="A"/><path fill="#333" d="M100-194c63 0 86 42 84 106H49c0 40 14 67 53 68 26 1 43-12 49-29l28 8c-11 28-37 45-77 45C44 4 14-33 15-96c1-61 26-98 85-98zm52 81c6-60-76-77-97-28-3 7-6 17-6 28h103" id="B"/><g id="b"><use transform="matrix(0.049382716049382706,0,0,0.049382716049382706,0,0)" xlink:href="#w"/><use transform="matrix(0.049382716049382706,0,0,0.049382716049382706,12.740740740740739,0)" xlink:href="#t"/><use transform="matrix(0.049382716049382706,0,0,0.049382716049382706,22.222222222222218,0)" xlink:href="#u"/><use transform="matrix(0.049382716049382706,0,0,0.049382716049382706,32.59259259259259,0)" xlink:href="#v"/><use transform="matrix(0.049382716049382706,0,0,0.049382716049382706,41.82716049382715,0)" xlink:href="#x"/><use transform="matrix(0.049382716049382706,0,0,0.049382716049382706,49.777777777777764,0)" xlink:href="#t"/><use transform="matrix(0.049382716049382706,0,0,0.049382716049382706,59.654320987654295,0)" xlink:href="#y"/><use transform="matrix(0.049382716049382706,0,0,0.049382716049382706,68.88888888888887,0)" xlink:href="#z"/><use transform="matrix(0.049382716049382706,0,0,0.049382716049382706,78.37037037037035,0)" xlink:href="#A"/><use transform="matrix(0.049382716049382706,0,0,0.049382716049382706,86.27160493827158,0)" xlink:href="#B"/><use transform="matrix(0.049382716049382706,0,0,0.049382716049382706,95.55555555555553,0)" xlink:href="#u"/><use transform="matrix(0.049382716049382706,0,0,0.049382716049382706,105.92592592592591,0)" xlink:href="#v"/></g><path fill="#333" d="M33 0v-248h34V0H33" id="C"/><path fill="#333" d="M30-248c118-7 216 8 213 122C240-48 200 0 122 0H30v-248zM63-27c89 8 146-16 146-99s-60-101-146-95v194" id="D"/><g id="c"><use transform="matrix(0.049382716049382706,0,0,0.049382716049382706,0,0)" xlink:href="#C"/><use transform="matrix(0.049382716049382706,0,0,0.049382716049382706,4.93827160493827,0)" xlink:href="#D"/></g><path fill="#333" d="M20-138c-1-64 85-51 150-52V0h-32v-81H94L39 0H3l60-83c-28-5-43-24-43-55zm33 3c0 40 46 33 85 33v-66c-39 0-85-6-85 33" id="E"/><g id="d"><use transform="matrix(0.049382716049382706,0,0,0.049382716049382706,0,0)" xlink:href="#w"/><use transform="matrix(0.049382716049382706,0,0,0.049382716049382706,12.740740740740739,0)" xlink:href="#t"/><use transform="matrix(0.049382716049382706,0,0,0.049382716049382706,22.222222222222218,0)" xlink:href="#u"/><use transform="matrix(0.049382716049382706,0,0,0.049382716049382706,32.59259259259259,0)" xlink:href="#v"/><use transform="matrix(0.049382716049382706,0,0,0.049382716049382706,41.82716049382715,0)" xlink:href="#x"/><use transform="matrix(0.049382716049382706,0,0,0.049382716049382706,49.777777777777764,0)" xlink:href="#t"/><use transform="matrix(0.049382716049382706,0,0,0.049382716049382706,59.654320987654295,0)" xlink:href="#y"/><use transform="matrix(0.049382716049382706,0,0,0.049382716049382706,68.88888888888887,0)" xlink:href="#z"/><use transform="matrix(0.049382716049382706,0,0,0.049382716049382706,78.37037037037035,0)" xlink:href="#A"/><use transform="matrix(0.049382716049382706,0,0,0.049382716049382706,86.27160493827158,0)" xlink:href="#B"/><use transform="matrix(0.049382716049382706,0,0,0.049382716049382706,95.55555555555553,0)" xlink:href="#u"/><use transform="matrix(0.049382716049382706,0,0,0.049382716049382706,105.92592592592591,0)" xlink:href="#E"/></g><path fill="#333" d="M121-190v23H57V0H25v-190h96" id="F"/><path fill="#333" d="M56-190L54-37l88-153h34V0h-30l2-153L59 0H25v-190h31" id="G"/><path fill="#333" d="M57-190v80h85v-80h32V0h-32v-87H57V0H25v-190h32" id="H"/><g id="e"><use transform="matrix(0.06172839506172839,0,0,0.06172839506172839,0,0)" xlink:href="#u"/><use transform="matrix(0.06172839506172839,0,0,0.06172839506172839,13.209876543209875,0)" xlink:href="#t"/><use transform="matrix(0.06172839506172839,0,0,0.06172839506172839,25.555555555555554,0)" xlink:href="#F"/><use transform="matrix(0.06172839506172839,0,0,0.06172839506172839,33.641975308641975,0)" xlink:href="#G"/><use transform="matrix(0.06172839506172839,0,0,0.06172839506172839,46.04938271604938,0)" xlink:href="#H"/></g><path fill="#333" d="M170-190V0h-32v-167H57V0H25v-190h145" id="I"/><g id="g"><use transform="matrix(0.06172839506172839,0,0,0.06172839506172839,0,0)" xlink:href="#I"/><use transform="matrix(0.06172839506172839,0,0,0.06172839506172839,11.975308641975309,0)" xlink:href="#z"/><use transform="matrix(0.06172839506172839,0,0,0.06172839506172839,24.320987654320987,0)" xlink:href="#s"/><use transform="matrix(0.06172839506172839,0,0,0.06172839506172839,36.666666666666664,0)" xlink:href="#t"/><use transform="matrix(0.06172839506172839,0,0,0.06172839506172839,48.51851851851851,0)" xlink:href="#u"/><use transform="matrix(0.06172839506172839,0,0,0.06172839506172839,61.481481481481474,0)" xlink:href="#v"/></g><path fill="#333" d="M138 0h-27L54-167c3 53 2 111 2 167H25v-190h49c16 56 39 106 51 166 11-61 34-110 50-166h48V0h-31l2-168" id="J"/><g id="h"><use transform="matrix(0.06172839506172839,0,0,0.06172839506172839,0,0)" xlink:href="#G"/><use transform="matrix(0.06172839506172839,0,0,0.06172839506172839,12.407407407407407,0)" xlink:href="#J"/><use transform="matrix(0.06172839506172839,0,0,0.06172839506172839,27.65432098765432,0)" xlink:href="#E"/></g><path fill="#333" d="M147-167H93C83-118 77-63 59-23h88v-144zM24-23c26-44 31-102 41-167h113v167h26v95h-29V0H32v72H4v-95h20" id="K"/><g id="i"><use transform="matrix(0.06172839506172839,0,0,0.06172839506172839,0,0)" xlink:href="#t"/><use transform="matrix(0.06172839506172839,0,0,0.06172839506172839,11.851851851851851,0)" xlink:href="#A"/><use transform="matrix(0.06172839506172839,0,0,0.06172839506172839,21.234567901234566,0)" xlink:href="#K"/><use transform="matrix(0.06172839506172839,0,0,0.06172839506172839,34.19753086419753,0)" xlink:href="#B"/><use transform="matrix(0.06172839506172839,0,0,0.06172839506172839,45.80246913580247,0)" xlink:href="#u"/></g><path fill="#333" d="M170-56C169 10 92 0 25 0v-190h32v80c58-2 114-1 113 54zm-34 0c0-38-42-32-79-32v66c38 0 79 5 79-34zm66 56v-190h32V0h-32" id="L"/><g id="j"><use transform="matrix(0.06172839506172839,0,0,0.06172839506172839,0,0)" xlink:href="#y"/><use transform="matrix(0.06172839506172839,0,0,0.06172839506172839,11.790123456790123,0)" xlink:href="#L"/><use transform="matrix(0.06172839506172839,0,0,0.06172839506172839,27.71604938271605,0)" xlink:href="#I"/><use transform="matrix(0.06172839506172839,0,0,0.06172839506172839,39.69135802469136,0)" xlink:href="#u"/><use transform="matrix(0.06172839506172839,0,0,0.06172839506172839,52.65432098765432,0)" xlink:href="#z"/><use transform="matrix(0.06172839506172839,0,0,0.06172839506172839,64.50617283950618,0)" xlink:href="#A"/><use transform="matrix(0.06172839506172839,0,0,0.06172839506172839,74.62962962962963,0)" xlink:href="#L"/></g><path fill="#333" d="M140-251c81 0 123 46 123 126C263-46 219 4 140 4 59 4 17-45 17-125s42-126 123-126zm0 227c63 0 89-41 89-101s-29-99-89-99c-61 0-89 39-89 99S79-25 140-24" id="M"/><g id="k"><use transform="matrix(0.049382716049382706,0,0,0.049382716049382706,0,0)" xlink:href="#M"/><use transform="matrix(0.049382716049382706,0,0,0.049382716049382706,13.827160493827158,0)" xlink:href="#A"/><use transform="matrix(0.049382716049382706,0,0,0.049382716049382706,21.33333333333333,0)" xlink:href="#K"/><use transform="matrix(0.049382716049382706,0,0,0.049382716049382706,31.7037037037037,0)" xlink:href="#B"/><use transform="matrix(0.049382716049382706,0,0,0.049382716049382706,40.987654320987644,0)" xlink:href="#u"/></g><g id="l"><use transform="matrix(0.049382716049382706,0,0,0.049382716049382706,0,0)" xlink:href="#t"/><use transform="matrix(0.049382716049382706,0,0,0.049382716049382706,9.48148148148148,0)" xlink:href="#A"/><use transform="matrix(0.049382716049382706,0,0,0.049382716049382706,16.98765432098765,0)" xlink:href="#K"/><use transform="matrix(0.049382716049382706,0,0,0.049382716049382706,27.35802469135802,0)" xlink:href="#B"/><use transform="matrix(0.049382716049382706,0,0,0.049382716049382706,36.64197530864197,0)" xlink:href="#u"/><use transform="matrix(0.049382716049382706,0,0,0.049382716049382706,47.012345679012334,0)" xlink:href="#z"/></g><g id="m"><use transform="matrix(0.049382716049382706,0,0,0.049382716049382706,0,0)" xlink:href="#w"/><use transform="matrix(0.049382716049382706,0,0,0.049382716049382706,12.740740740740739,0)" xlink:href="#s"/><use transform="matrix(0.049382716049382706,0,0,0.049382716049382706,22.617283950617278,0)" xlink:href="#B"/><use transform="matrix(0.049382716049382706,0,0,0.049382716049382706,32.49382716049382,0)" xlink:href="#J"/><use transform="matrix(0.049382716049382706,0,0,0.049382716049382706,44.691358024691354,0)" xlink:href="#G"/><use transform="matrix(0.049382716049382706,0,0,0.049382716049382706,54.61728395061727,0)" xlink:href="#E"/></g><g id="n"><use transform="matrix(0.049382716049382706,0,0,0.049382716049382706,0,0)" xlink:href="#y"/><use transform="matrix(0.049382716049382706,0,0,0.049382716049382706,9.432098765432096,0)" xlink:href="#L"/><use transform="matrix(0.049382716049382706,0,0,0.049382716049382706,22.172839506172835,0)" xlink:href="#I"/><use transform="matrix(0.049382716049382706,0,0,0.049382716049382706,31.75308641975308,0)" xlink:href="#u"/><use transform="matrix(0.049382716049382706,0,0,0.049382716049382706,42.12345679012345,0)" xlink:href="#z"/><use transform="matrix(0.049382716049382706,0,0,0.049382716049382706,51.604938271604915,0)" xlink:href="#A"/></g><g id="o"><use transform="matrix(0.06172839506172839,0,0,0.06172839506172839,0,0)" xlink:href="#K"/><use transform="matrix(0.06172839506172839,0,0,0.06172839506172839,12.962962962962962,0)" xlink:href="#z"/><use transform="matrix(0.06172839506172839,0,0,0.06172839506172839,24.814814814814813,0)" xlink:href="#A"/><use transform="matrix(0.06172839506172839,0,0,0.06172839506172839,34.691358024691354,0)" xlink:href="#z"/></g><path fill="#333" d="M179-190L93 31C79 59 56 82 12 73V49c39 6 53-20 64-50L1-190h34L92-34l54-156h33" id="N"/><path fill="#333" d="M131-81C94-61 21-56 21-118v-72h32c4 39-16 99 29 99 19 0 33-5 49-8v-91h31V0h-31v-81" id="O"/><g id="p"><use transform="matrix(0.06172839506172839,0,0,0.06172839506172839,0,0)" xlink:href="#I"/><use transform="matrix(0.06172839506172839,0,0,0.06172839506172839,11.975308641975309,0)" xlink:href="#t"/><use transform="matrix(0.06172839506172839,0,0,0.06172839506172839,23.827160493827158,0)" xlink:href="#u"/><use transform="matrix(0.06172839506172839,0,0,0.06172839506172839,36.79012345679012,0)" xlink:href="#N"/><use transform="matrix(0.06172839506172839,0,0,0.06172839506172839,47.90123456790123,0)" xlink:href="#O"/><use transform="matrix(0.06172839506172839,0,0,0.06172839506172839,59.444444444444436,0)" xlink:href="#B"/><use transform="matrix(0.06172839506172839,0,0,0.06172839506172839,71.79012345679011,0)" xlink:href="#H"/><use transform="matrix(0.06172839506172839,0,0,0.06172839506172839,84.01234567901233,0)" xlink:href="#G"/><use transform="matrix(0.06172839506172839,0,0,0.06172839506172839,96.41975308641973,0)" xlink:href="#E"/></g><g id="q"><use transform="matrix(0.06172839506172839,0,0,0.06172839506172839,0,0)" xlink:href="#I"/><use transform="matrix(0.06172839506172839,0,0,0.06172839506172839,11.975308641975309,0)" xlink:href="#s"/><use transform="matrix(0.06172839506172839,0,0,0.06172839506172839,24.320987654320987,0)" xlink:href="#B"/><use transform="matrix(0.06172839506172839,0,0,0.06172839506172839,36.666666666666664,0)" xlink:href="#J"/><use transform="matrix(0.06172839506172839,0,0,0.06172839506172839,51.913580246913575,0)" xlink:href="#G"/><use transform="matrix(0.06172839506172839,0,0,0.06172839506172839,64.32098765432099,0)" xlink:href="#E"/></g><g id="r"><use transform="matrix(0.06172839506172839,0,0,0.06172839506172839,0,0)" xlink:href="#x"/><use transform="matrix(0.06172839506172839,0,0,0.06172839506172839,10.185185185185185,0)" xlink:href="#I"/></g></defs></g></svg>