<svg xmlns="http://www.w3.org/2000/svg" xmlns:xlink="http://www.w3.org/1999/xlink" xmlns:lucid="lucid" width="1670.16" height="842"><g transform="translate(50.16049382716042 -79)" lucid:page-tab-id="0_0"><path d="M-1806.87 0h3677.74v1322.83h-3677.74z" fill="#fff"/><path d="M20 201h240v60H20z" fill="none"/><use xlink:href="#a" transform="matrix(1,0,0,1,20,201) translate(22.583333333333343 33.111111111111114)"/><use xlink:href="#b" transform="matrix(1,0,0,1,20,201) translate(69.37962962962962 33.111111111111114)"/><use xlink:href="#c" transform="matrix(1,0,0,1,20,201) translate(137.0895061728395 33.111111111111114)"/><use xlink:href="#d" transform="matrix(1,0,0,1,20,201) translate(152.55864197530863 33.111111111111114)"/><path d="M11.25 110.75c0 5.38-4.37 9.75-9.75 9.75s-9.75-4.37-9.75-9.75S-3.88 101 1.5 101s9.75 4.37 9.75 9.75z" stroke="#5e5e5e" stroke-width="3" fill="#fff"/><path d="M1.5 120.5v21.3c0 3.3 1.86 7.94 4.16 10.32L31.5 179m-30-31.2l-30 31.2m0-48.75h60" stroke="#5e5e5e" stroke-width="3" fill="none"/><path d="M-28.5 107c0-3.3 2.7-6 6-6h48c3.3 0 6 2.7 6 6v88c0 3.3-2.7 6-6 6h-48c-3.3 0-6-2.7-6-6z" fill="none"/><use xlink:href="#e" transform="matrix(1,0,0,1,-108.49999999999994,179) translate(80.33950617283952 17.77777777777778)"/><path d="M500 105c0-3.3 2.7-6 6-6h188c3.3 0 6 2.7 6 6v87c0 3.3-2.7 6-6 6H506c-3.3 0-6-2.7-6-6z" stroke="#5e5e5e" stroke-width="3" fill="#fff"/><use xlink:href="#f" transform="matrix(1,0,0,1,508,107) translate(55.824999999999996 45.1)"/><path d="M800 106c0-3.3 2.7-6 6-6h188c3.3 0 6 2.7 6 6v87c0 3.3-2.7 6-6 6H806c-3.3 0-6-2.7-6-6z" stroke="#5e5e5e" stroke-width="3" fill="#fff"/><use xlink:href="#g" transform="matrix(1,0,0,1,808,108) translate(55.05 45.1)"/><path d="M1100 105c0-3.3 2.7-6 6-6h188c3.3 0 6 2.7 6 6v87c0 3.3-2.7 6-6 6h-188c-3.3 0-6-2.7-6-6z" stroke="#5e5e5e" stroke-width="3" fill="#fff"/><use xlink:href="#h" transform="matrix(1,0,0,1,1108,107) translate(79.15 45.1)"/><path d="M200 107c0-3.3 2.7-6 6-6h188c3.3 0 6 2.7 6 6v87c0 3.3-2.7 6-6 6H206c-3.3 0-6-2.7-6-6z" stroke="#5e5e5e" stroke-width="3" fill="#fff"/><use xlink:href="#i" transform="matrix(1,0,0,1,208,109) translate(66.05 45.1)"/><path d="M1400 106c0-3.3 2.7-6 6-6h188c3.3 0 6 2.7 6 6v87c0 3.3-2.7 6-6 6h-188c-3.3 0-6-2.7-6-6z" stroke="#5e5e5e" stroke-width="3" fill="#fff"/><use xlink:href="#j" transform="matrix(1,0,0,1,1408,108) translate(62.05 45.1)"/><path d="M300 200.75c.4 0 .75.34.75.75v697c0 .4-.34.75-.75.75-.4 0-.75-.34-.75-.75v-697c0-.4.34-.75.75-.75zM601.5 201.75c.4 0 .75.34.75.75v697c0 .4-.34.75-.75.75-.4 0-.75-.34-.75-.75v-697c0-.4.34-.75.75-.75zM1.5 201.75c.4 0 .75.34.75.75v697c0 .4-.34.75-.75.75-.4 0-.75-.34-.75-.75v-697c0-.4.34-.75.75-.75zM901.5 198.75c.4 0 .75.34.75.75v697c0 .4-.34.75-.75.75-.4 0-.75-.34-.75-.75v-697c0-.4.34-.75.75-.75zM1201.5 201.75c.4 0 .75.34.75.75v697c0 .4-.34.75-.75.75-.4 0-.75-.34-.75-.75v-697c0-.4.34-.75.75-.75zM1500 198.75c.4 0 .75.34.75.75v697c0 .4-.34.75-.75.75-.4 0-.75-.34-.75-.75v-697c0-.4.34-.75.75-.75z" stroke="#5e5e5e" stroke-width="1.5" fill="none"/><path d="M4 241h276" stroke="#5e5e5e" stroke-width="2" fill="none"/><path d="M4.03 242H3v-2h1.03" fill="#5e5e5e"/><path d="M295.26 241L281 245.64v-9.28z" stroke="#5e5e5e" stroke-width="2" fill="#5e5e5e"/><path d="M302.5 260h279" stroke="#5e5e5e" stroke-width="2" fill="none"/><path d="M302.53 261h-1.03v-2h1.03" fill="#5e5e5e"/><path d="M596.76 260l-14.26 4.64v-9.28z" stroke="#5e5e5e" stroke-width="2" fill="#5e5e5e"/><path d="M604 280h277.5" stroke="#5e5e5e" stroke-width="2" fill="none"/><path d="M604.03 281H603v-2h1.03" fill="#5e5e5e"/><path d="M896.76 280l-14.26 4.64v-9.28z" stroke="#5e5e5e" stroke-width="2" fill="#5e5e5e"/><path d="M904 300h277.5" stroke="#5e5e5e" stroke-width="2" fill="none"/><path d="M904.03 301H903v-2h1.03" fill="#5e5e5e"/><path d="M1196.76 300l-14.26 4.64v-9.28z" stroke="#5e5e5e" stroke-width="2" fill="#5e5e5e"/><path d="M1199 320H921.5" stroke="#5e5e5e" stroke-width="2" fill="none"/><path d="M1200 321h-1.03v-2h1.03" fill="#5e5e5e"/><path d="M906.24 320l14.26-4.64v9.28z" stroke="#5e5e5e" stroke-width="2" fill="#5e5e5e"/><path d="M899 340H621.5" stroke="#5e5e5e" stroke-width="2" fill="none"/><path d="M900 341h-1.03v-2H900" fill="#5e5e5e"/><path d="M606.24 340l14.26-4.64v9.28z" stroke="#5e5e5e" stroke-width="2" fill="#5e5e5e"/><path d="M599 360H320" stroke="#5e5e5e" stroke-width="2" fill="none"/><path d="M600 361h-1.03v-2H600" fill="#5e5e5e"/><path d="M304.74 360l14.26-4.64v9.28z" stroke="#5e5e5e" stroke-width="2" fill="#5e5e5e"/><path d="M299.5 400h279M299.53 400h-1.03" stroke="#5e5e5e" stroke-width="2" fill="none"/><path d="M593.76 400l-14.26 4.64v-9.28z" stroke="#5e5e5e" stroke-width="2" fill="#5e5e5e"/><path d="M601 420h277.5M601.03 420H600" stroke="#5e5e5e" stroke-width="2" fill="none"/><path d="M893.76 420l-14.26 4.64v-9.28z" stroke="#5e5e5e" stroke-width="2" fill="#5e5e5e"/><path d="M901 440h277.5M901.03 440H900" stroke="#5e5e5e" stroke-width="2" fill="none"/><path d="M1193.76 440l-14.26 4.64v-9.28z" stroke="#5e5e5e" stroke-width="2" fill="#5e5e5e"/><path d="M1196 460H918.5M1195.97 460h1.03" stroke="#5e5e5e" stroke-width="2" fill="none"/><path d="M903.24 460l14.26-4.64v9.28z" stroke="#5e5e5e" stroke-width="2" fill="#5e5e5e"/><path d="M896 480H618.5M895.97 480H897" stroke="#5e5e5e" stroke-width="2" fill="none"/><path d="M603.24 480l14.26-4.64v9.28z" stroke="#5e5e5e" stroke-width="2" fill="#5e5e5e"/><path d="M596 500H317M595.97 500H597" stroke="#5e5e5e" stroke-width="2" fill="none"/><path d="M301.74 500l14.26-4.64v9.28z" stroke="#5e5e5e" stroke-width="2" fill="#5e5e5e"/><path d="M299.5 540h279M299.53 540h-1.03" stroke="#5e5e5e" stroke-width="2" fill="none"/><path d="M593.76 540l-14.26 4.64v-9.28z" stroke="#5e5e5e" stroke-width="2" fill="#5e5e5e"/><path d="M601 560h277.5M601.03 560H600" stroke="#5e5e5e" stroke-width="2" fill="none"/><path d="M893.76 560l-14.26 4.64v-9.28z" stroke="#5e5e5e" stroke-width="2" fill="#5e5e5e"/><path d="M899 580H620M898.97 580H900" stroke="#5e5e5e" stroke-width="2" fill="none"/><path d="M604.74 580l14.26-4.64v9.28z" stroke="#5e5e5e" stroke-width="2" fill="#5e5e5e"/><path d="M599 601.8H320" stroke="#5e5e5e" stroke-width="2" fill="none"/><path d="M600 602.8h-1.03v-2H600" fill="#5e5e5e"/><path d="M304.74 601.8l14.26-4.63v9.27z" stroke="#5e5e5e" stroke-width="2" fill="#5e5e5e"/><path d="M320 220h240v60H320z" fill="none"/><use xlink:href="#k" transform="matrix(1,0,0,1,320,220) translate(14.827160493827193 33.111111111111114)"/><use xlink:href="#l" transform="matrix(1,0,0,1,320,220) translate(101.33333333333334 33.111111111111114)"/><use xlink:href="#m" transform="matrix(1,0,0,1,320,220) translate(173.0185185185185 33.111111111111114)"/><path d="M631.5 240h240v60h-240z" fill="none"/><use xlink:href="#k" transform="matrix(1,0,0,1,631.5000000000001,240) translate(14.827160493827193 33.111111111111114)"/><use xlink:href="#l" transform="matrix(1,0,0,1,631.5000000000001,240) translate(101.33333333333334 33.111111111111114)"/><use xlink:href="#m" transform="matrix(1,0,0,1,631.5000000000001,240) translate(173.0185185185185 33.111111111111114)"/><path d="M931.5 260h240v60h-240z" fill="none"/><use xlink:href="#n" transform="matrix(1,0,0,1,931.5000000000001,260) translate(56.84876543209879 33.111111111111114)"/><use xlink:href="#o" transform="matrix(1,0,0,1,931.5000000000001,260) translate(115.78703703703704 33.111111111111114)"/><path d="M1200 280h240v60h-240z" fill="none"/><use xlink:href="#p" transform="matrix(1,0,0,1,1200,280) translate(24.635802469135825 33.111111111111114)"/><use xlink:href="#o" transform="matrix(1,0,0,1,1200,280) translate(148 33.111111111111114)"/><path d="M931.5 280h240v60h-240z" fill="none"/><use xlink:href="#q" transform="matrix(1,0,0,1,931.5000000000001,280) translate(44.901234567901255 33.111111111111114)"/><use xlink:href="#r" transform="matrix(1,0,0,1,931.5000000000001,280) translate(142.08024691358025 33.111111111111114)"/><path d="M640 300h240v60H640z" fill="none"/><use xlink:href="#q" transform="matrix(1,0,0,1,640,300) translate(44.901234567901255 33.111111111111114)"/><use xlink:href="#r" transform="matrix(1,0,0,1,640,300) translate(142.08024691358025 33.111111111111114)"/><path d="M330.75 300h240v60h-240z" fill="none"/><use xlink:href="#s" transform="matrix(1,0,0,1,330.75,300) translate(30.771604938271622 23.77777777777778)"/><use xlink:href="#t" transform="matrix(1,0,0,1,330.75,300) translate(88.11111111111111 23.77777777777778)"/><use xlink:href="#u" transform="matrix(1,0,0,1,330.75,300) translate(55.81172839506175 42.44444444444444)"/><use xlink:href="#v" transform="matrix(1,0,0,1,330.75,300) translate(141.4969135802469 42.44444444444444)"/><path d="M301.5 360H600v60H301.5z" fill="none"/><use xlink:href="#w" transform="matrix(1,0,0,1,301.5,360) translate(24.39197530864203 32.22222222222222)"/><use xlink:href="#x" transform="matrix(1,0,0,1,301.5,360) translate(73.21913580246917 32.22222222222222)"/><use xlink:href="#y" transform="matrix(1,0,0,1,301.5,360) translate(91.70679012345681 32.22222222222222)"/><use xlink:href="#z" transform="matrix(1,0,0,1,301.5,360) translate(163.74382716049382 32.22222222222222)"/><use xlink:href="#A" transform="matrix(1,0,0,1,301.5,360) translate(214.94753086419752 32.22222222222222)"/><use xlink:href="#B" transform="matrix(1,0,0,1,301.5,360) translate(226.6759259259259 32.22222222222222)"/><path d="M603 381h297v59H603z" fill="none"/><use xlink:href="#w" transform="matrix(1,0,0,1,603.0000000000002,381) translate(23.39197530864203 31.72222222222222)"/><use xlink:href="#x" transform="matrix(1,0,0,1,603.0000000000002,381) translate(72.21913580246917 31.72222222222222)"/><use xlink:href="#y" transform="matrix(1,0,0,1,603.0000000000002,381) translate(90.70679012345681 31.72222222222222)"/><use xlink:href="#z" transform="matrix(1,0,0,1,603.0000000000002,381) translate(162.74382716049382 31.72222222222222)"/><use xlink:href="#A" transform="matrix(1,0,0,1,603.0000000000002,381) translate(213.94753086419752 31.72222222222222)"/><use xlink:href="#B" transform="matrix(1,0,0,1,603.0000000000002,381) translate(225.6759259259259 31.72222222222222)"/><path d="M903 400h288.5v60H903z" fill="none"/><use xlink:href="#w" transform="matrix(1,0,0,1,903.0000000000002,400) translate(19.39197530864203 32.22222222222222)"/><use xlink:href="#x" transform="matrix(1,0,0,1,903.0000000000002,400) translate(68.21913580246917 32.22222222222222)"/><use xlink:href="#y" transform="matrix(1,0,0,1,903.0000000000002,400) translate(86.70679012345681 32.22222222222222)"/><use xlink:href="#z" transform="matrix(1,0,0,1,903.0000000000002,400) translate(158.74382716049382 32.22222222222222)"/><use xlink:href="#A" transform="matrix(1,0,0,1,903.0000000000002,400) translate(209.94753086419752 32.22222222222222)"/><use xlink:href="#B" transform="matrix(1,0,0,1,903.0000000000002,400) translate(221.6759259259259 32.22222222222222)"/><path d="M1200 421h240v60h-240z" fill="none"/><use xlink:href="#p" transform="matrix(1,0,0,1,1200,421) translate(24.635802469135825 33.111111111111114)"/><use xlink:href="#o" transform="matrix(1,0,0,1,1200,421) translate(148 33.111111111111114)"/><path d="M931.5 421h240v60h-240z" fill="none"/><use xlink:href="#p" transform="matrix(1,0,0,1,931.5,421) translate(24.635802469135825 33.111111111111114)"/><use xlink:href="#o" transform="matrix(1,0,0,1,931.5,421) translate(148 33.111111111111114)"/><path d="M631.5 441h240v60h-240z" fill="none"/><g><use xlink:href="#p" transform="matrix(1,0,0,1,631.5000000000001,441) translate(24.635802469135825 33.111111111111114)"/><use xlink:href="#o" transform="matrix(1,0,0,1,631.5000000000001,441) translate(148 33.111111111111114)"/></g><path d="M330.75 460h240v60h-240z" fill="none"/><g><use xlink:href="#C" transform="matrix(1,0,0,1,330.75,460) translate(0.9567901234568268 33.111111111111114)"/><use xlink:href="#D" transform="matrix(1,0,0,1,330.75,460) translate(125.57407407407408 33.111111111111114)"/><use xlink:href="#o" transform="matrix(1,0,0,1,330.75,460) translate(171.67901234567898 33.111111111111114)"/></g><path d="M330.75 500h240v60h-240z" fill="none"/><g><use xlink:href="#E" transform="matrix(1,0,0,1,330.75,500) translate(34.37962962962965 33.111111111111114)"/><use xlink:href="#F" transform="matrix(1,0,0,1,330.75,500) translate(171.91666666666666 33.111111111111114)"/></g><path d="M631.5 518h240v60h-240z" fill="none"/><g><use xlink:href="#E" transform="matrix(1,0,0,1,631.5000000000001,517.9999999999999) translate(34.37962962962965 33.111111111111114)"/><use xlink:href="#F" transform="matrix(1,0,0,1,631.5000000000001,517.9999999999999) translate(171.91666666666666 33.111111111111114)"/></g><path d="M333 560h240v60H333z" fill="none"/><g><use xlink:href="#G" transform="matrix(1,0,0,1,333.00000000000017,560) translate(52.72222222222223 33.111111111111114)"/><use xlink:href="#F" transform="matrix(1,0,0,1,333.00000000000017,560) translate(153.57407407407408 33.111111111111114)"/></g><path d="M923 560h181.24v28.67H923z" fill="#fff" fill-opacity="0"/><g><use xlink:href="#E" transform="matrix(1,0,0,1,928.0000000000002,565) translate(0 12.444444444444443)"/><use xlink:href="#F" transform="matrix(1,0,0,1,928.0000000000002,565) translate(137.537037037037 12.444444444444443)"/></g><path d="M631.5 540h240v60h-240z" fill="none"/><g><use xlink:href="#G" transform="matrix(1,0,0,1,631.5000000000001,540) translate(52.72222222222223 33.111111111111114)"/><use xlink:href="#F" transform="matrix(1,0,0,1,631.5000000000001,540) translate(153.57407407407408 33.111111111111114)"/></g><path d="M302.5 641.42h279M302.53 641.42h-1.03" stroke="#5e5e5e" stroke-width="2" fill="none"/><path d="M596.76 641.42l-14.26 4.63v-9.27z" stroke="#5e5e5e" stroke-width="2" fill="#5e5e5e"/><path d="M604 661.42h277.5M604.03 661.42H603" stroke="#5e5e5e" stroke-width="2" fill="none"/><path d="M896.76 661.42l-14.26 4.63v-9.27z" stroke="#5e5e5e" stroke-width="2" fill="#5e5e5e"/><path d="M904 681.42h277.5M904.03 681.42H903" stroke="#5e5e5e" stroke-width="2" fill="none"/><path d="M1196.76 681.42l-14.26 4.63v-9.27z" stroke="#5e5e5e" stroke-width="2" fill="#5e5e5e"/><path d="M320 601.42h240v60H320z" fill="none"/><g><use xlink:href="#H" transform="matrix(1,0,0,1,320,601.4173228346456) translate(31.138888888888914 33.111111111111114)"/><use xlink:href="#I" transform="matrix(1,0,0,1,320,601.4173228346456) translate(141.75617283950618 33.111111111111114)"/></g><path d="M631.5 621.42h240v60h-240z" fill="none"/><g><use xlink:href="#H" transform="matrix(1,0,0,1,631.5000000000001,621.4173228346456) translate(31.138888888888914 33.111111111111114)"/><use xlink:href="#I" transform="matrix(1,0,0,1,631.5000000000001,621.4173228346456) translate(141.75617283950618 33.111111111111114)"/></g><path d="M1200 661.42h240v60h-240z" fill="none"/><g><use xlink:href="#H" transform="matrix(1,0,0,1,1200,661.4173228346456) translate(31.138888888888914 33.111111111111114)"/><use xlink:href="#I" transform="matrix(1,0,0,1,1200,661.4173228346456) translate(141.75617283950618 33.111111111111114)"/></g><path d="M931.5 640h240v60h-240z" fill="none"/><g><use xlink:href="#H" transform="matrix(1,0,0,1,931.5,640) translate(31.138888888888914 33.111111111111114)"/><use xlink:href="#I" transform="matrix(1,0,0,1,931.5,640) translate(141.75617283950618 33.111111111111114)"/></g><defs><path fill="#333" d="M160-131c35 5 61 23 61 61C221 17 115-2 30 0v-248c76 3 177-17 177 60 0 33-19 50-47 57zm-97-11c50-1 110 9 110-42 0-47-63-36-110-37v79zm0 115c55-2 124 14 124-45 0-56-70-42-124-44v89" id="J"/><path fill="#333" d="M140-251c81 0 123 46 123 126C263-46 219 4 140 4 59 4 17-45 17-125s42-126 123-126zm0 227c63 0 89-41 89-101s-29-99-89-99c-61 0-89 39-89 99S79-25 140-24" id="K"/><path fill="#333" d="M206-28h31V72h-32V0H34v72H3V-28h25c38-50 38-143 51-220h127v220zm-32 0v-192h-66C95-156 94-78 66-28h108" id="L"/><g id="a"><use transform="matrix(0.04320987654320987,0,0,0.04320987654320987,0,0)" xlink:href="#J"/><use transform="matrix(0.04320987654320987,0,0,0.04320987654320987,10.370370370370368,0)" xlink:href="#J"/><use transform="matrix(0.04320987654320987,0,0,0.04320987654320987,20.222222222222218,0)" xlink:href="#K"/><use transform="matrix(0.04320987654320987,0,0,0.04320987654320987,31.975308641975303,0)" xlink:href="#L"/></g><path fill="#333" d="M174-220h-73C86-151 89-61 55-11 46 3 24 5 3 1v-27c55 4 50-76 57-132l12-90h135V0h-33v-220" id="M"/><path fill="#333" d="M188-248v28H63V0H30v-248h158" id="N"/><path fill="#333" d="M30 0v-248h30L58-37l132-211h39V0h-30l1-209L70 0H30" id="O"/><path fill="#333" d="M197 0v-115H63V0H30v-248h33v105h134v-105h34V0h-34" id="P"/><path fill="#333" d="M205 0l-28-72H64L36 0H1l101-248h38L239 0h-34zm-38-99l-47-123c-12 45-31 82-46 123h93" id="Q"/><g id="b"><use transform="matrix(0.04320987654320987,0,0,0.04320987654320987,0,0)" xlink:href="#M"/><use transform="matrix(0.04320987654320987,0,0,0.04320987654320987,10.197530864197528,0)" xlink:href="#K"/><use transform="matrix(0.04320987654320987,0,0,0.04320987654320987,22.29629629629629,0)" xlink:href="#N"/><use transform="matrix(0.04320987654320987,0,0,0.04320987654320987,30.679012345679006,0)" xlink:href="#O"/><use transform="matrix(0.04320987654320987,0,0,0.04320987654320987,41.82716049382715,0)" xlink:href="#P"/><use transform="matrix(0.04320987654320987,0,0,0.04320987654320987,53.018518518518505,0)" xlink:href="#Q"/></g><use transform="matrix(0.04320987654320987,0,0,0.04320987654320987,0,0)" xlink:href="#O" id="c"/><path fill="#333" d="M197 0v-219H63V0H30v-248h201V0h-34" id="R"/><path fill="#333" d="M30-248c87 1 191-15 191 75 0 78-77 80-158 76V0H30v-248zm33 125c57 0 124 11 124-50 0-59-68-47-124-48v98" id="S"/><path fill="#333" d="M27-177c-1-92 116-68 204-71V0h-34v-103h-77L56 0H17l70-107c-37-6-59-29-60-70zm170-44c-58 3-137-15-137 45 1 60 77 46 137 47v-92" id="T"/><g id="d"><use transform="matrix(0.04320987654320987,0,0,0.04320987654320987,0,0)" xlink:href="#R"/><use transform="matrix(0.04320987654320987,0,0,0.04320987654320987,11.148148148148145,0)" xlink:href="#Q"/><use transform="matrix(0.04320987654320987,0,0,0.04320987654320987,21.518518518518512,0)" xlink:href="#S"/><use transform="matrix(0.04320987654320987,0,0,0.04320987654320987,31.5432098765432,0)" xlink:href="#K"/><use transform="matrix(0.04320987654320987,0,0,0.04320987654320987,43.469135802469125,0)" xlink:href="#M"/><use transform="matrix(0.04320987654320987,0,0,0.04320987654320987,53.66666666666666,0)" xlink:href="#T"/></g><path fill="#333" d="M75-87c-4 1-14 3-19 3V0H24v-190h32v83c26-2 31-21 43-41l26-42h33l-61 86L159 0h-35" id="U"/><path fill="#333" d="M6-190h153v23H98V0H67v-167H6v-23" id="V"/><path fill="#333" d="M100-194c63 0 86 42 84 106H49c0 40 14 67 53 68 26 1 43-12 49-29l28 8c-11 28-37 45-77 45C44 4 14-33 15-96c1-61 26-98 85-98zm52 81c6-60-76-77-97-28-3 7-6 17-6 28h103" id="W"/><path fill="#333" d="M115-194c55 1 70 41 70 98S169 2 115 4C84 4 66-9 55-30l1 105H24l-1-265h31l2 30c10-21 28-34 59-34zm-8 174c40 0 45-34 45-75s-6-73-45-74c-42 0-51 32-51 76 0 43 10 73 51 73" id="X"/><g id="e"><use transform="matrix(0.06172839506172839,0,0,0.06172839506172839,0,0)" xlink:href="#Q"/><use transform="matrix(0.06172839506172839,0,0,0.06172839506172839,14.814814814814813,0)" xlink:href="#U"/><use transform="matrix(0.06172839506172839,0,0,0.06172839506172839,24.75308641975308,0)" xlink:href="#V"/><use transform="matrix(0.06172839506172839,0,0,0.06172839506172839,34.62962962962962,0)" xlink:href="#W"/><use transform="matrix(0.06172839506172839,0,0,0.06172839506172839,46.975308641975296,0)" xlink:href="#X"/></g><path d="M98-112c-6 3-14 5-22 6V0H24v-248h52v106c24-6 35-30 47-49l36-57h53l-77 111L220 0h-56" id="Y"/><path d="M107-205C87-117 104 19 1 0v-44c46 2 41-73 48-121l12-83h168V0h-50v-205h-72" id="Z"/><path d="M24 0v-248h46L69-55l107-193h59V0h-46l1-191L83 0H24" id="aa"/><path d="M24 0v-248h195v40H76v63h132v40H76v65h150V0H24" id="ab"/><path d="M186 0v-106H76V0H24v-248h52v99h110v-99h50V0h-50" id="ac"/><path d="M136-208V0H84v-208H4v-40h212v40h-80" id="ad"/><g id="f"><use transform="matrix(0.05,0,0,0.05,0,0)" xlink:href="#Y"/><use transform="matrix(0.05,0,0,0.05,10.950000000000001,0)" xlink:href="#Z"/><use transform="matrix(0.05,0,0,0.05,23.550000000000004,0)" xlink:href="#aa"/><use transform="matrix(0.05,0,0,0.05,36.45,0)" xlink:href="#ab"/><use transform="matrix(0.05,0,0,0.05,48.45,0)" xlink:href="#ac"/><use transform="matrix(0.05,0,0,0.05,61.400000000000006,0)" xlink:href="#ad"/></g><path d="M67-125c0 53 21 87 73 88 37 1 54-22 65-47l45 17C233-25 199 4 140 4 58 4 20-42 15-125 8-235 124-281 211-232c18 10 29 29 36 50l-46 12c-8-25-30-41-62-41-52 0-71 34-72 86" id="ae"/><path d="M24-248c93 1 206-16 204 79-1 75-69 88-152 82V0H24v-248zm52 121c47 0 100 7 100-41 0-47-54-39-100-39v80" id="af"/><path d="M182-130c37 4 62 22 62 59C244 23 116-4 24 0v-248c84 5 203-23 205 63 0 31-19 50-47 55zM76-148c40-3 101 13 101-30 0-44-60-28-101-31v61zm0 110c48-3 116 14 116-37 0-48-69-32-116-35v72" id="ag"/><g id="g"><use transform="matrix(0.05,0,0,0.05,0,0)" xlink:href="#ae"/><use transform="matrix(0.05,0,0,0.05,12.950000000000001,0)" xlink:href="#ab"/><use transform="matrix(0.05,0,0,0.05,24.950000000000003,0)" xlink:href="#af"/><use transform="matrix(0.05,0,0,0.05,36.95,0)" xlink:href="#ag"/><use transform="matrix(0.05,0,0,0.05,49.900000000000006,0)" xlink:href="#ab"/><use transform="matrix(0.05,0,0,0.05,61.900000000000006,0)" xlink:href="#af"/></g><path d="M76-149c81-1 171-10 170 73C244 22 120-3 24 0v-248h187v40H76v59zm0 109c48-3 118 14 118-35 0-47-71-32-118-34v69" id="ah"/><path d="M217-43h33V72h-44V0H47v72H3V-43h28c29-54 38-131 48-205h138v205zm-50 0v-162h-46c-7 58-16 118-36 162h82" id="ai"/><g id="h"><use transform="matrix(0.05,0,0,0.05,0,0)" xlink:href="#ah"/><use transform="matrix(0.05,0,0,0.05,12.9,0)" xlink:href="#ai"/></g><path d="M140-251c80 0 125 45 125 126S219 4 139 4C58 4 15-44 15-125s44-126 125-126zm-1 214c52 0 73-35 73-88 0-50-21-86-72-86-52 0-73 35-73 86s22 88 72 88" id="aj"/><g id="i"><use transform="matrix(0.05,0,0,0.05,0,0)" xlink:href="#aj"/><use transform="matrix(0.05,0,0,0.05,14,0)" xlink:href="#Y"/><use transform="matrix(0.05,0,0,0.05,24.950000000000003,0)" xlink:href="#ac"/><use transform="matrix(0.05,0,0,0.05,37.900000000000006,0)" xlink:href="#aj"/></g><path d="M24 0v-248h195v40H76v63h132v40H76v65h150V0H24" id="ak"/><path d="M182 0l-62-99L58 0H3l86-130-79-118h55l55 88 55-88h55l-75 118L237 0h-55" id="al"/><path d="M67-125c0 53 21 87 73 88 37 1 54-22 65-47l45 17C233-25 199 4 140 4 58 4 20-42 15-125 8-235 124-281 211-232c18 10 29 29 36 50l-46 12c-8-25-30-41-62-41-52 0-71 34-72 86" id="am"/><path d="M24 0v-248h52v208h133V0H24" id="an"/><g id="j"><use transform="matrix(0.05,0,0,0.05,0,0)" xlink:href="#ak"/><use transform="matrix(0.05,0,0,0.05,12,0)" xlink:href="#al"/><use transform="matrix(0.05,0,0,0.05,24,0)" xlink:href="#am"/><use transform="matrix(0.05,0,0,0.05,36.95,0)" xlink:href="#ak"/><use transform="matrix(0.05,0,0,0.05,48.95,0)" xlink:href="#an"/></g><path fill="#333" d="M127-220V0H93v-220H8v-28h204v28h-85" id="ao"/><path fill="#333" d="M94-120c-9 3-20 7-31 7V0H30v-248h33v109c41-1 47-27 65-55l36-54h35c-23 32-58 90-81 112L208 0h-39" id="ap"/><g id="k"><use transform="matrix(0.04320987654320987,0,0,0.04320987654320987,0,0)" xlink:href="#K"/><use transform="matrix(0.04320987654320987,0,0,0.04320987654320987,12.098765432098762,0)" xlink:href="#ao"/><use transform="matrix(0.04320987654320987,0,0,0.04320987654320987,21.56172839506172,0)" xlink:href="#R"/><use transform="matrix(0.04320987654320987,0,0,0.04320987654320987,32.709876543209866,0)" xlink:href="#S"/><use transform="matrix(0.04320987654320987,0,0,0.04320987654320987,42.043209876543195,0)" xlink:href="#Q"/><use transform="matrix(0.04320987654320987,0,0,0.04320987654320987,52.41358024691356,0)" xlink:href="#J"/><use transform="matrix(0.04320987654320987,0,0,0.04320987654320987,62.78395061728393,0)" xlink:href="#ap"/><use transform="matrix(0.04320987654320987,0,0,0.04320987654320987,71.8148148148148,0)" xlink:href="#Q"/></g><path fill="#333" d="M63-143c77-2 155-4 155 70C218 13 117 1 30 0v-248h33v105zm0 116c54-1 121 11 121-45 0-53-67-44-121-44v89zM256 0v-248h33V0h-33" id="aq"/><path fill="#333" d="M195 0l-74-108L45 0H8l94-129-87-119h37l69 98 67-98h37l-84 118L233 0h-38" id="ar"/><g id="l"><use transform="matrix(0.04320987654320987,0,0,0.04320987654320987,0,0)" xlink:href="#L"/><use transform="matrix(0.04320987654320987,0,0,0.04320987654320987,10.499999999999998,0)" xlink:href="#Q"/><use transform="matrix(0.04320987654320987,0,0,0.04320987654320987,20.870370370370367,0)" xlink:href="#P"/><use transform="matrix(0.04320987654320987,0,0,0.04320987654320987,32.06172839506172,0)" xlink:href="#P"/><use transform="matrix(0.04320987654320987,0,0,0.04320987654320987,43.253086419753075,0)" xlink:href="#aq"/><use transform="matrix(0.04320987654320987,0,0,0.04320987654320987,56.99382716049381,0)" xlink:href="#ar"/></g><g id="m"><use transform="matrix(0.04320987654320987,0,0,0.04320987654320987,0,0)" xlink:href="#J"/><use transform="matrix(0.04320987654320987,0,0,0.04320987654320987,9.679012345679011,0)" xlink:href="#ar"/><use transform="matrix(0.04320987654320987,0,0,0.04320987654320987,19.53086419753086,0)" xlink:href="#K"/><use transform="matrix(0.04320987654320987,0,0,0.04320987654320987,31.283950617283942,0)" xlink:href="#L"/><use transform="matrix(0.04320987654320987,0,0,0.04320987654320987,41.78395061728394,0)" xlink:href="#Q"/></g><path fill="#333" d="M212-179c-10-28-35-45-73-45-59 0-87 40-87 99 0 60 29 101 89 101 43 0 62-24 78-52l27 14C228-24 195 4 139 4 59 4 22-46 18-125c-6-104 99-153 187-111 19 9 31 26 39 46" id="as"/><g id="n"><use transform="matrix(0.04320987654320987,0,0,0.04320987654320987,0,0)" xlink:href="#R"/><use transform="matrix(0.04320987654320987,0,0,0.04320987654320987,11.148148148148145,0)" xlink:href="#K"/><use transform="matrix(0.04320987654320987,0,0,0.04320987654320987,23.246913580246908,0)" xlink:href="#O"/><use transform="matrix(0.04320987654320987,0,0,0.04320987654320987,34.39506172839505,0)" xlink:href="#as"/><use transform="matrix(0.04320987654320987,0,0,0.04320987654320987,45.5864197530864,0)" xlink:href="#ap"/></g><g id="o"><use transform="matrix(0.04320987654320987,0,0,0.04320987654320987,0,0)" xlink:href="#L"/><use transform="matrix(0.04320987654320987,0,0,0.04320987654320987,10.499999999999998,0)" xlink:href="#Q"/><use transform="matrix(0.04320987654320987,0,0,0.04320987654320987,20.870370370370367,0)" xlink:href="#P"/><use transform="matrix(0.04320987654320987,0,0,0.04320987654320987,32.06172839506172,0)" xlink:href="#P"/><use transform="matrix(0.04320987654320987,0,0,0.04320987654320987,43.253086419753075,0)" xlink:href="#aq"/><use transform="matrix(0.04320987654320987,0,0,0.04320987654320987,56.99382716049381,0)" xlink:href="#ar"/></g><path fill="#333" d="M200-71c5 87-137 96-174 38-6-8-10-16-14-25l29-13c12 25 29 48 67 48 33 0 58-14 58-48 0-41-36-45-82-44v-26c42 2 76-5 75-43-1-27-20-40-49-40-34 0-53 18-62 43l-31-10c14-38 43-60 94-60 47 0 79 19 81 64 1 36-22 50-49 58 33 5 55 22 57 58" id="at"/><path fill="#333" d="M323-28V72h-31V0H30v-248h33v220h82v-220h33v220h82v-220h32v220h31" id="au"/><path fill="#333" d="M30 0v-248h187v28H63v79h144v27H63v87h162V0H30" id="av"/><g id="p"><use transform="matrix(0.04320987654320987,0,0,0.04320987654320987,0,0)" xlink:href="#J"/><use transform="matrix(0.04320987654320987,0,0,0.04320987654320987,9.85185185185185,0)" xlink:href="#K"/><use transform="matrix(0.04320987654320987,0,0,0.04320987654320987,21.950617283950614,0)" xlink:href="#at"/><use transform="matrix(0.04320987654320987,0,0,0.04320987654320987,31.327160493827154,0)" xlink:href="#J"/><use transform="matrix(0.04320987654320987,0,0,0.04320987654320987,41.697530864197525,0)" xlink:href="#S"/><use transform="matrix(0.04320987654320987,0,0,0.04320987654320987,51.03086419753085,0)" xlink:href="#Q"/><use transform="matrix(0.04320987654320987,0,0,0.04320987654320987,61.40123456790122,0)" xlink:href="#au"/><use transform="matrix(0.04320987654320987,0,0,0.04320987654320987,75.96296296296295,0)" xlink:href="#av"/><use transform="matrix(0.04320987654320987,0,0,0.04320987654320987,86.33333333333331,0)" xlink:href="#P"/><use transform="matrix(0.04320987654320987,0,0,0.04320987654320987,97.52469135802467,0)" xlink:href="#O"/><use transform="matrix(0.04320987654320987,0,0,0.04320987654320987,108.67283950617282,0)" xlink:href="#av"/></g><path fill="#333" d="M30-34c39 28 70-14 80-46L10-248h38l79 138 67-138h36L114-29C100 3 49 14 16-9" id="aw"/><path fill="#333" d="M30 0v-248h33v220h86v-220h33v220h86v-220h32V0H30" id="ax"/><path fill="#333" d="M195-325c8 67-111 74-126 20-2-7-3-13-3-20h29c2 22 12 35 35 35s35-12 36-35h29zM30 0v-248h30L58-37l132-211h39V0h-30l1-209L70 0H30" id="ay"/><g id="q"><use transform="matrix(0.04320987654320987,0,0,0.04320987654320987,0,0)" xlink:href="#aw"/><use transform="matrix(0.04320987654320987,0,0,0.04320987654320987,9.85185185185185,0)" xlink:href="#as"/><use transform="matrix(0.04320987654320987,0,0,0.04320987654320987,21.043209876543205,0)" xlink:href="#R"/><use transform="matrix(0.04320987654320987,0,0,0.04320987654320987,32.191358024691354,0)" xlink:href="#av"/><use transform="matrix(0.04320987654320987,0,0,0.04320987654320987,42.56172839506172,0)" xlink:href="#ax"/><use transform="matrix(0.04320987654320987,0,0,0.04320987654320987,56.777777777777764,0)" xlink:href="#P"/><use transform="matrix(0.04320987654320987,0,0,0.04320987654320987,67.96913580246913,0)" xlink:href="#aq"/><use transform="matrix(0.04320987654320987,0,0,0.04320987654320987,81.70987654320986,0)" xlink:href="#ay"/></g><g id="r"><use transform="matrix(0.04320987654320987,0,0,0.04320987654320987,0,0)" xlink:href="#M"/><use transform="matrix(0.04320987654320987,0,0,0.04320987654320987,10.197530864197528,0)" xlink:href="#K"/><use transform="matrix(0.04320987654320987,0,0,0.04320987654320987,22.29629629629629,0)" xlink:href="#N"/><use transform="matrix(0.04320987654320987,0,0,0.04320987654320987,30.679012345679006,0)" xlink:href="#O"/><use transform="matrix(0.04320987654320987,0,0,0.04320987654320987,41.82716049382715,0)" xlink:href="#P"/></g><g id="s"><use transform="matrix(0.04320987654320987,0,0,0.04320987654320987,0,0)" xlink:href="#M"/><use transform="matrix(0.04320987654320987,0,0,0.04320987654320987,10.197530864197528,0)" xlink:href="#K"/><use transform="matrix(0.04320987654320987,0,0,0.04320987654320987,22.29629629629629,0)" xlink:href="#N"/><use transform="matrix(0.04320987654320987,0,0,0.04320987654320987,30.679012345679006,0)" xlink:href="#O"/><use transform="matrix(0.04320987654320987,0,0,0.04320987654320987,41.82716049382715,0)" xlink:href="#P"/></g><path fill="#333" d="M63-143c77-2 155-4 155 70C218 13 117 1 30 0v-248h162v28H63v77zm0 116c54-1 121 11 121-45 0-53-67-44-121-44v89" id="az"/><path fill="#333" d="M213-120c-9 3-19 6-30 7V0h-34v-113c-11-1-21-4-30-7L44 0H5l89-136c-22-22-58-81-81-112h35l70 99c8 8 16 9 31 10v-109h34v109c41-1 47-27 65-55l36-54h35l-50 72c-15 22-25 36-31 40L327 0h-39" id="aA"/><g id="t"><use transform="matrix(0.04320987654320987,0,0,0.04320987654320987,0,0)" xlink:href="#K"/><use transform="matrix(0.04320987654320987,0,0,0.04320987654320987,12.098765432098762,0)" xlink:href="#ao"/><use transform="matrix(0.04320987654320987,0,0,0.04320987654320987,20.870370370370367,0)" xlink:href="#K"/><use transform="matrix(0.04320987654320987,0,0,0.04320987654320987,32.969135802469125,0)" xlink:href="#az"/><use transform="matrix(0.04320987654320987,0,0,0.04320987654320987,43.16666666666666,0)" xlink:href="#S"/><use transform="matrix(0.04320987654320987,0,0,0.04320987654320987,52.499999999999986,0)" xlink:href="#Q"/><use transform="matrix(0.04320987654320987,0,0,0.04320987654320987,62.87037037037036,0)" xlink:href="#aA"/><use transform="matrix(0.04320987654320987,0,0,0.04320987654320987,77.21604938271602,0)" xlink:href="#av"/><use transform="matrix(0.04320987654320987,0,0,0.04320987654320987,87.58641975308639,0)" xlink:href="#P"/><use transform="matrix(0.04320987654320987,0,0,0.04320987654320987,98.77777777777774,0)" xlink:href="#O"/><use transform="matrix(0.04320987654320987,0,0,0.04320987654320987,109.9259259259259,0)" xlink:href="#T"/></g><g id="u"><use transform="matrix(0.04320987654320987,0,0,0.04320987654320987,0,0)" xlink:href="#N"/><use transform="matrix(0.04320987654320987,0,0,0.04320987654320987,7.518518518518517,0)" xlink:href="#M"/><use transform="matrix(0.04320987654320987,0,0,0.04320987654320987,17.716049382716044,0)" xlink:href="#Q"/><use transform="matrix(0.04320987654320987,0,0,0.04320987654320987,28.08641975308641,0)" xlink:href="#J"/><use transform="matrix(0.04320987654320987,0,0,0.04320987654320987,38.45679012345678,0)" xlink:href="#P"/><use transform="matrix(0.04320987654320987,0,0,0.04320987654320987,49.64814814814813,0)" xlink:href="#K"/><use transform="matrix(0.04320987654320987,0,0,0.04320987654320987,61.7469135802469,0)" xlink:href="#N"/><use transform="matrix(0.04320987654320987,0,0,0.04320987654320987,69.26543209876542,0)" xlink:href="#K"/></g><g id="v"><use transform="matrix(0.04320987654320987,0,0,0.04320987654320987,0,0)" xlink:href="#K"/><use transform="matrix(0.04320987654320987,0,0,0.04320987654320987,12.098765432098762,0)" xlink:href="#ap"/><use transform="matrix(0.04320987654320987,0,0,0.04320987654320987,21.129629629629626,0)" xlink:href="#P"/><use transform="matrix(0.04320987654320987,0,0,0.04320987654320987,32.32098765432098,0)" xlink:href="#Q"/></g><g id="w"><use transform="matrix(0.030864197530864182,0,0,0.030864197530864182,0,0)" xlink:href="#at"/><use transform="matrix(0.030864197530864182,0,0,0.030864197530864182,6.697530864197527,0)" xlink:href="#Q"/><use transform="matrix(0.030864197530864182,0,0,0.030864197530864182,13.981481481481474,0)" xlink:href="#R"/><use transform="matrix(0.030864197530864182,0,0,0.030864197530864182,21.944444444444432,0)" xlink:href="#S"/><use transform="matrix(0.030864197530864182,0,0,0.030864197530864182,29.104938271604922,0)" xlink:href="#K"/><use transform="matrix(0.030864197530864182,0,0,0.030864197530864182,37.7469135802469,0)" xlink:href="#as"/></g><g id="x"><use transform="matrix(0.030864197530864182,0,0,0.030864197530864182,0,0)" xlink:href="#P"/><use transform="matrix(0.030864197530864182,0,0,0.030864197530864182,7.993827160493823,0)" xlink:href="#Q"/></g><path fill="#333" d="M62-147c-4 58 76 40 115 32v-133h34V0h-34v-89C118-74 28-68 28-143v-105h34v101" id="aB"/><g id="y"><use transform="matrix(0.030864197530864182,0,0,0.030864197530864182,0,0)" xlink:href="#R"/><use transform="matrix(0.030864197530864182,0,0,0.030864197530864182,7.962962962962959,0)" xlink:href="#K"/><use transform="matrix(0.030864197530864182,0,0,0.030864197530864182,16.481481481481474,0)" xlink:href="#M"/><use transform="matrix(0.030864197530864182,0,0,0.030864197530864182,23.76543209876542,0)" xlink:href="#aw"/><use transform="matrix(0.030864197530864182,0,0,0.030864197530864182,30.802469135802454,0)" xlink:href="#aB"/><use transform="matrix(0.030864197530864182,0,0,0.030864197530864182,38.17901234567899,0)" xlink:href="#av"/><use transform="matrix(0.030864197530864182,0,0,0.030864197530864182,45.586419753086396,0)" xlink:href="#P"/><use transform="matrix(0.030864197530864182,0,0,0.030864197530864182,53.58024691358022,0)" xlink:href="#O"/><use transform="matrix(0.030864197530864182,0,0,0.030864197530864182,61.54320987654318,0)" xlink:href="#av"/></g><g id="z"><use transform="matrix(0.030864197530864182,0,0,0.030864197530864182,0,0)" xlink:href="#L"/><use transform="matrix(0.030864197530864182,0,0,0.030864197530864182,7.4999999999999964,0)" xlink:href="#Q"/><use transform="matrix(0.030864197530864182,0,0,0.030864197530864182,14.907407407407401,0)" xlink:href="#P"/><use transform="matrix(0.030864197530864182,0,0,0.030864197530864182,22.901234567901223,0)" xlink:href="#P"/><use transform="matrix(0.030864197530864182,0,0,0.030864197530864182,30.895061728395046,0)" xlink:href="#aq"/><use transform="matrix(0.030864197530864182,0,0,0.030864197530864182,40.70987654320986,0)" xlink:href="#ar"/></g><use transform="matrix(0.030864197530864182,0,0,0.030864197530864182,0,0)" xlink:href="#K" id="A"/><path fill="#333" d="M240 0l2-218c-23 76-54 145-80 218h-23L58-218 59 0H30v-248h44l77 211c21-75 51-140 76-211h43V0h-30" id="aC"/><g id="B"><use transform="matrix(0.030864197530864182,0,0,0.030864197530864182,0,0)" xlink:href="#R"/><use transform="matrix(0.030864197530864182,0,0,0.030864197530864182,7.962962962962959,0)" xlink:href="#S"/><use transform="matrix(0.030864197530864182,0,0,0.030864197530864182,15.370370370370363,0)" xlink:href="#av"/><use transform="matrix(0.030864197530864182,0,0,0.030864197530864182,22.777777777777768,0)" xlink:href="#aC"/><use transform="matrix(0.030864197530864182,0,0,0.030864197530864182,32.006172839506156,0)" xlink:href="#O"/><use transform="matrix(0.030864197530864182,0,0,0.030864197530864182,39.96913580246912,0)" xlink:href="#O"/></g><g id="C"><use transform="matrix(0.04320987654320987,0,0,0.04320987654320987,0,0)" xlink:href="#K"/><use transform="matrix(0.04320987654320987,0,0,0.04320987654320987,12.098765432098762,0)" xlink:href="#ao"/><use transform="matrix(0.04320987654320987,0,0,0.04320987654320987,20.870370370370367,0)" xlink:href="#K"/><use transform="matrix(0.04320987654320987,0,0,0.04320987654320987,32.969135802469125,0)" xlink:href="#az"/><use transform="matrix(0.04320987654320987,0,0,0.04320987654320987,43.16666666666666,0)" xlink:href="#S"/><use transform="matrix(0.04320987654320987,0,0,0.04320987654320987,52.499999999999986,0)" xlink:href="#Q"/><use transform="matrix(0.04320987654320987,0,0,0.04320987654320987,62.87037037037036,0)" xlink:href="#aA"/><use transform="matrix(0.04320987654320987,0,0,0.04320987654320987,77.21604938271602,0)" xlink:href="#av"/><use transform="matrix(0.04320987654320987,0,0,0.04320987654320987,87.58641975308639,0)" xlink:href="#P"/><use transform="matrix(0.04320987654320987,0,0,0.04320987654320987,98.77777777777774,0)" xlink:href="#O"/><use transform="matrix(0.04320987654320987,0,0,0.04320987654320987,109.9259259259259,0)" xlink:href="#av"/></g><g id="D"><use transform="matrix(0.04320987654320987,0,0,0.04320987654320987,0,0)" xlink:href="#J"/><use transform="matrix(0.04320987654320987,0,0,0.04320987654320987,9.85185185185185,0)" xlink:href="#as"/><use transform="matrix(0.04320987654320987,0,0,0.04320987654320987,21.043209876543205,0)" xlink:href="#av"/><use transform="matrix(0.04320987654320987,0,0,0.04320987654320987,31.413580246913572,0)" xlink:href="#ar"/></g><path fill="#333" d="M154-217c63-1 99 29 99 88s-35 93-99 91V2h-34v-40c-64 1-99-31-99-91s36-90 99-88v-32h34v32zm0 155c44 0 65-24 65-67s-22-64-65-64v131zm-34-131c-43-1-67 20-66 64 0 43 22 67 66 67v-131" id="aD"/><g id="E"><use transform="matrix(0.04320987654320987,0,0,0.04320987654320987,0,0)" xlink:href="#aD"/><use transform="matrix(0.04320987654320987,0,0,0.04320987654320987,11.796296296296294,0)" xlink:href="#K"/><use transform="matrix(0.04320987654320987,0,0,0.04320987654320987,23.895061728395056,0)" xlink:href="#S"/><use transform="matrix(0.04320987654320987,0,0,0.04320987654320987,34.09259259259259,0)" xlink:href="#aC"/><use transform="matrix(0.04320987654320987,0,0,0.04320987654320987,47.01234567901235,0)" xlink:href="#O"/><use transform="matrix(0.04320987654320987,0,0,0.04320987654320987,58.160493827160494,0)" xlink:href="#S"/><use transform="matrix(0.04320987654320987,0,0,0.04320987654320987,68.18518518518518,0)" xlink:href="#K"/><use transform="matrix(0.04320987654320987,0,0,0.04320987654320987,80.28395061728394,0)" xlink:href="#J"/><use transform="matrix(0.04320987654320987,0,0,0.04320987654320987,90.13580246913578,0)" xlink:href="#Q"/><use transform="matrix(0.04320987654320987,0,0,0.04320987654320987,100.50617283950615,0)" xlink:href="#P"/><use transform="matrix(0.04320987654320987,0,0,0.04320987654320987,111.6975308641975,0)" xlink:href="#O"/><use transform="matrix(0.04320987654320987,0,0,0.04320987654320987,122.84567901234563,0)" xlink:href="#av"/></g><path fill="#333" d="M33 0v-38h34V0H33" id="aE"/><path fill="#333" d="M195 0l-74-108L45 0H8l94-129-87-119h37l69 98 67-98h37l-84 118L233 0h-38" id="aF"/><path fill="#333" d="M185-189c-5-48-123-54-124 2 14 75 158 14 163 119 3 78-121 87-175 55-17-10-28-26-33-46l33-7c5 56 141 63 141-1 0-78-155-14-162-118-5-82 145-84 179-34 5 7 8 16 11 25" id="aG"/><path fill="#333" d="M30 0v-248h33v221h125V0H30" id="aH"/><g id="F"><use transform="matrix(0.04320987654320987,0,0,0.04320987654320987,0,0)" xlink:href="#aE"/><use transform="matrix(0.04320987654320987,0,0,0.04320987654320987,4.320987654320986,0)" xlink:href="#aF"/><use transform="matrix(0.04320987654320987,0,0,0.04320987654320987,14.691358024691354,0)" xlink:href="#aG"/><use transform="matrix(0.04320987654320987,0,0,0.04320987654320987,25.061728395061724,0)" xlink:href="#aH"/></g><g id="G"><use transform="matrix(0.04320987654320987,0,0,0.04320987654320987,0,0)" xlink:href="#R"/><use transform="matrix(0.04320987654320987,0,0,0.04320987654320987,11.148148148148145,0)" xlink:href="#K"/><use transform="matrix(0.04320987654320987,0,0,0.04320987654320987,23.07407407407407,0)" xlink:href="#M"/><use transform="matrix(0.04320987654320987,0,0,0.04320987654320987,33.271604938271594,0)" xlink:href="#aw"/><use transform="matrix(0.04320987654320987,0,0,0.04320987654320987,43.12345679012344,0)" xlink:href="#aB"/><use transform="matrix(0.04320987654320987,0,0,0.04320987654320987,53.4506172839506,0)" xlink:href="#av"/><use transform="matrix(0.04320987654320987,0,0,0.04320987654320987,63.820987654320966,0)" xlink:href="#P"/><use transform="matrix(0.04320987654320987,0,0,0.04320987654320987,75.01234567901233,0)" xlink:href="#O"/><use transform="matrix(0.04320987654320987,0,0,0.04320987654320987,86.16049382716048,0)" xlink:href="#av"/></g><g id="H"><use transform="matrix(0.04320987654320987,0,0,0.04320987654320987,0,0)" xlink:href="#L"/><use transform="matrix(0.04320987654320987,0,0,0.04320987654320987,10.499999999999998,0)" xlink:href="#K"/><use transform="matrix(0.04320987654320987,0,0,0.04320987654320987,22.598765432098762,0)" xlink:href="#az"/><use transform="matrix(0.04320987654320987,0,0,0.04320987654320987,32.450617283950606,0)" xlink:href="#Q"/><use transform="matrix(0.04320987654320987,0,0,0.04320987654320987,42.82098765432097,0)" xlink:href="#J"/><use transform="matrix(0.04320987654320987,0,0,0.04320987654320987,53.0185185185185,0)" xlink:href="#M"/><use transform="matrix(0.04320987654320987,0,0,0.04320987654320987,63.21604938271602,0)" xlink:href="#av"/><use transform="matrix(0.04320987654320987,0,0,0.04320987654320987,73.58641975308639,0)" xlink:href="#P"/><use transform="matrix(0.04320987654320987,0,0,0.04320987654320987,84.77777777777774,0)" xlink:href="#O"/><use transform="matrix(0.04320987654320987,0,0,0.04320987654320987,95.92592592592591,0)" xlink:href="#av"/></g><g id="I"><use transform="matrix(0.04320987654320987,0,0,0.04320987654320987,0,0)" xlink:href="#R"/><use transform="matrix(0.04320987654320987,0,0,0.04320987654320987,11.148148148148145,0)" xlink:href="#S"/><use transform="matrix(0.04320987654320987,0,0,0.04320987654320987,21.518518518518512,0)" xlink:href="#av"/><use transform="matrix(0.04320987654320987,0,0,0.04320987654320987,31.88888888888888,0)" xlink:href="#aC"/><use transform="matrix(0.04320987654320987,0,0,0.04320987654320987,44.80864197530863,0)" xlink:href="#O"/><use transform="matrix(0.04320987654320987,0,0,0.04320987654320987,55.95679012345678,0)" xlink:href="#O"/></g></defs></g></svg>